<svg width="68" height="68" viewBox="0 0 68 68" fill="none" xmlns="http://www.w3.org/2000/svg">
<rect width="56" height="56" rx="28" fill="#F9D15C"/>
<g clip-path="url(#clip0_2842_638)">
<path d="M39.8906 63.0233C41.884 63.0233 43.5 61.4073 43.5 59.4139C43.5 57.4205 41.884 55.8046 39.8906 55.8046C37.8972 55.8046 36.2812 57.4205 36.2812 59.4139C36.2812 61.4073 37.8972 63.0233 39.8906 63.0233Z" fill="#222222"/>
<path d="M67.4127 28.9382C60.2235 21.2248 50.4884 16.9767 39.9996 16.9766C29.5116 16.9767 19.7765 21.2248 12.5872 28.9382C11.7636 29.822 11.8123 31.2062 12.696 32.0299C13.5799 32.8535 14.964 32.805 15.7877 31.9211C22.1402 25.1053 30.7388 21.3517 40.0004 21.3515C49.2611 21.3517 57.8597 25.1053 64.2122 31.9211C64.643 32.3833 65.2272 32.6172 65.8129 32.6172C66.347 32.6172 66.8824 32.4227 67.3039 32.0299C68.1877 31.2061 68.2364 29.822 67.4127 28.9382Z" fill="#222222"/>
<path d="M59.3806 37.9719C54.0664 32.6176 47.1836 29.6689 39.9998 29.6692C32.8145 29.6693 25.9315 32.618 20.619 37.9721C19.768 38.8297 19.7734 40.2147 20.631 41.0657C21.4886 41.9166 22.8736 41.9112 23.7245 41.0536C28.2095 36.5336 33.9895 34.0443 39.9998 34.0442C46.0087 34.0439 51.7887 36.5334 56.2753 41.0539C56.7029 41.4847 57.2653 41.7004 57.8279 41.7004C58.3849 41.7004 58.9423 41.4888 59.369 41.0655C60.2264 40.2144 60.2317 38.8294 59.3806 37.9719Z" fill="#222222"/>
<path d="M50.626 47.0318C47.7801 44.2123 43.7007 42.4608 39.9796 42.4608C39.9791 42.4608 39.9784 42.4608 39.9779 42.4608H39.8203C39.8197 42.4608 39.8193 42.4608 39.8187 42.4608C36.0974 42.4608 32.0177 44.2124 29.1719 47.0318C28.3137 47.8821 28.3073 49.2671 29.1576 50.1254C29.5853 50.5571 30.1484 50.7733 30.7116 50.7733C31.268 50.7733 31.8246 50.5623 32.251 50.1398C34.277 48.1326 37.2473 46.8358 39.8189 46.8358C39.8192 46.8358 39.8197 46.8358 39.82 46.8358H39.9783C39.9787 46.8358 39.9788 46.8358 39.9792 46.8358C42.5505 46.8358 45.5211 48.1327 47.5468 50.1398C48.4049 50.99 49.7902 50.9839 50.6403 50.1254C51.4907 49.2672 51.4843 47.8821 50.626 47.0318Z" fill="#222222"/>
</g>
<defs>
<clipPath id="clip0_2842_638">
<rect width="56" height="56" fill="white" transform="translate(12 12)"/>
</clipPath>
</defs>
</svg>
