<svg width="150" height="100" viewBox="0 0 150 100" fill="none" xmlns="http://www.w3.org/2000/svg">
<path d="M129.724 45.578C129.617 45.578 129.532 45.4885 129.532 45.3846V44.0866H129.161C129.07 44.0866 128.993 44.0101 128.993 43.9177C128.993 43.8225 129.071 43.7476 129.161 43.7476H130.285C130.374 43.7476 130.452 43.8225 130.452 43.9177C130.452 44.0101 130.374 44.0866 130.285 44.0866H129.913V45.3846C129.913 45.4885 129.828 45.578 129.724 45.578H129.724ZM132.5 45.578C132.397 45.578 132.311 45.4885 132.311 45.3846V44.2553L131.828 45.5072C131.812 45.5481 131.772 45.5779 131.726 45.5779C131.681 45.5779 131.641 45.5493 131.625 45.5072L131.142 44.2553V45.3846C131.142 45.4885 131.059 45.578 130.956 45.578C130.849 45.578 130.762 45.4885 130.762 45.3846V44.0433C130.762 43.8687 130.902 43.7277 131.072 43.7277C131.207 43.7277 131.318 43.8127 131.364 43.9325L131.726 44.8772L132.092 43.9325C132.134 43.8127 132.249 43.7277 132.381 43.7277C132.554 43.7277 132.692 43.8691 132.692 44.0433V45.3847C132.692 45.4886 132.607 45.5781 132.5 45.5781L132.5 45.578ZM30.9549 43.1766C30.9549 42.5275 31.1569 41.9261 31.4987 41.427C30.4703 41.73 29.7145 42.6703 29.7145 43.7967V45.7814L30.9549 45.8435V43.1766ZM29.7143 56.8238C29.7143 57.9503 30.47 58.8907 31.4999 59.1936C31.1566 58.6945 30.9547 58.0931 30.9547 57.444V53.7215H29.7143L29.7143 56.8238ZM32.816 53.7222H31.5755V57.4448C31.5755 58.5712 32.3313 59.5116 33.3597 59.8145C33.0178 59.3154 32.816 58.714 32.816 58.0649V53.7222ZM32.816 42.5561C32.816 41.9071 33.0179 41.3056 33.3597 40.8066C32.3313 41.1095 31.5755 42.0499 31.5755 43.1763V45.8748L32.816 45.937V42.5561ZM18.8293 41.7616C17.922 42.3023 17.3076 43.2845 17.3076 44.4167V56.2033C17.3076 57.337 17.922 58.3178 18.8293 58.8586C18.6433 58.4101 18.5478 57.9293 18.548 57.4437V43.1764C18.548 42.676 18.649 42.1985 18.8293 41.7615L18.8293 41.7616ZM20.4092 41.9359C20.4092 41.4355 20.5102 40.958 20.6905 40.521C19.7833 41.0619 19.1688 42.0426 19.1688 43.1763V57.445C19.1688 58.7778 20.014 59.9042 21.1953 60.3426C20.7049 59.7124 20.4092 58.9234 20.4092 58.0652V41.9359Z" fill="#EE2841"/>
<path d="M35.9176 40.0747C34.5474 40.0747 33.4368 41.1853 33.4368 42.5555V46.5881L27.2334 46.2782V41.9354C27.2334 40.2234 25.8445 38.8345 24.131 38.8345C22.4176 38.8345 21.03 40.2234 21.03 41.9354V58.0648C21.03 59.7783 22.4176 61.1658 24.131 61.1658C25.8445 61.1658 27.2334 59.7783 27.2334 58.0648V53.1019H33.4368V58.0648C33.4368 59.435 34.5474 60.5456 35.9176 60.5456C37.2878 60.5456 38.3983 59.435 38.3983 58.0648V42.5556C38.3983 41.1854 37.2878 40.0749 35.9176 40.0749V40.0747ZM57.3364 55.1823V50.5886H50.6355V55.1823C50.6355 55.6727 50.2359 56.0895 49.7455 56.0895C49.2378 56.0895 48.8196 55.6727 48.8196 55.1823V44.704C48.8196 44.2136 49.2378 43.7967 49.7282 43.7967C50.2359 43.7967 50.6355 44.2136 50.6355 44.704V48.9717H57.3364V44.704C57.3364 44.2136 57.7359 43.7967 58.2451 43.7967C58.7528 43.7967 59.1523 44.2136 59.1523 44.704V55.1823C59.1523 55.6727 58.7528 56.0895 58.2451 56.0895C57.7359 56.0895 57.3364 55.6727 57.3364 55.1823ZM60.4356 51.6047C60.4356 49.0806 62.1433 47.0109 64.8663 47.0109C67.6082 47.0109 69.2971 49.0806 69.2971 51.6047C69.2971 54.1475 67.6082 56.2171 64.8663 56.2171C62.1433 56.2171 60.4356 54.1475 60.4356 51.6047V51.6047ZM67.5909 51.6047C67.5909 49.9518 66.6274 48.4633 64.8663 48.4633C63.1226 48.4633 62.1433 49.9518 62.1433 51.6047C62.1433 53.2749 63.1226 54.7648 64.8663 54.7648C66.6274 54.7648 67.5909 53.2749 67.5909 51.6047ZM78.7968 47.0106C81.4304 47.0106 83.0646 49.063 83.0646 51.3693C83.0646 51.8597 82.7184 52.1496 82.1011 52.1496H76.1271C76.254 53.638 77.3444 54.8741 79.1054 54.8741C79.8497 54.8741 80.6314 54.6374 81.2848 54.1645C81.3756 54.0926 81.5026 54.075 81.6482 54.075C82.0117 54.075 82.3016 54.3648 82.3016 54.7283C82.3016 54.9634 82.192 55.1452 82.0117 55.2735C81.1391 55.9081 80.1035 56.2168 78.9425 56.2168C76.3275 56.2168 74.402 54.3648 74.402 51.6043C74.402 49.0629 76.2367 47.0105 78.7968 47.0105V47.0106ZM76.1097 50.9696H81.4665C81.4305 49.8072 80.6487 48.3548 78.7967 48.3548C77.0357 48.3548 76.1992 49.7711 76.1097 50.9696ZM84.1045 55.2729V44.6128C84.1045 44.1599 84.468 43.7964 84.9223 43.7964C85.3579 43.7964 85.7387 44.1599 85.7387 44.6128V55.2729C85.7387 55.7272 85.3579 56.0906 84.9223 56.0906C84.8148 56.0911 84.7083 56.0703 84.6088 56.0293C84.5094 55.9884 84.4191 55.9282 84.3431 55.8521C84.267 55.7761 84.2068 55.6858 84.1659 55.5864C84.1249 55.4869 84.1041 55.3804 84.1045 55.2729ZM86.7897 54.6555C86.7897 54.256 87.0984 53.9473 87.4979 53.9473C87.6435 53.9473 87.7878 54.0021 87.8974 54.074C88.5695 54.5644 89.4407 54.9091 90.3667 54.9091C91.6012 54.9091 92.2546 54.4014 92.2546 53.6558C92.2546 52.7846 91.2565 52.4947 90.1301 52.2409C88.6416 51.8946 86.8993 51.4952 86.8993 49.6072C86.8993 48.2096 88.0964 47.0111 90.2397 47.0111C91.457 47.0111 92.4191 47.3729 93.1633 47.9183C93.3262 48.045 93.4532 48.227 93.4532 48.4635C93.4532 48.8253 93.1445 49.1341 92.7825 49.1341C92.6556 49.1341 92.5099 49.0806 92.419 49.0074C91.8566 48.5906 91.0936 48.3367 90.2585 48.3367C89.1508 48.3367 88.4599 48.7723 88.4599 49.4805C88.4599 50.2435 89.4046 50.4973 90.4936 50.7512C92.0195 51.0958 93.8354 51.5141 93.8354 53.529C93.8354 55.0362 92.6008 56.2175 90.2945 56.2175C89.0772 56.2175 87.9882 55.9088 87.0984 55.2367C86.9166 55.11 86.7897 54.8921 86.7897 54.6555ZM95.9793 53.9291C96.5967 53.9291 97.1231 54.4382 97.1231 55.0555C97.1231 55.6729 96.5966 56.1993 95.9793 56.1993C95.362 56.1993 94.8529 55.6729 94.8529 55.0555C94.8529 54.4382 95.362 53.9291 95.9793 53.9291ZM105.608 51.6047C105.608 49.0806 107.314 47.0109 110.038 47.0109C112.78 47.0109 114.469 49.0806 114.469 51.6047C114.469 54.1475 112.78 56.2171 110.038 56.2171C107.314 56.2171 105.608 54.1475 105.608 51.6047V51.6047ZM112.763 51.6047C112.763 49.9518 111.8 48.4633 110.038 48.4633C108.295 48.4633 107.314 49.9518 107.314 51.6047C107.314 53.2749 108.295 54.7648 110.038 54.7648C111.8 54.7648 112.763 53.2749 112.763 51.6047ZM127.99 49.6616V55.2737C127.99 55.7265 127.608 56.09 127.155 56.09C126.72 56.09 126.356 55.7265 126.356 55.2737V50.152C126.356 49.1352 125.902 48.6448 124.83 48.6448C123.94 48.6448 123.069 49.6457 122.651 50.2818V55.2737C122.652 55.381 122.631 55.4873 122.59 55.5866C122.549 55.6859 122.489 55.776 122.413 55.8519C122.337 55.9278 122.247 55.9879 122.148 56.0288C122.048 56.0697 121.942 56.0905 121.835 56.09C121.399 56.09 121.017 55.7265 121.017 55.2737V50.152C121.017 49.1352 120.581 48.6448 119.474 48.6448C118.62 48.6448 117.767 49.7063 117.33 50.3409V55.2736C117.33 55.7265 116.95 56.09 116.514 56.09C116.06 56.09 115.696 55.7265 115.696 55.2736V47.9553C115.696 47.501 116.06 47.1376 116.495 47.1376C116.95 47.1376 117.33 47.501 117.33 47.9553V48.463C117.694 47.9178 118.856 47.0106 120.163 47.0106C121.49 47.0106 122.27 47.7 122.543 48.6448C123.051 47.827 124.238 47.0106 125.527 47.0106C127.144 47.0106 127.99 47.9005 127.99 49.6616Z" fill="#EE2841"/>
<path d="M102.021 47.0104C103.274 47.0104 104.146 47.4099 104.818 48.0273C104.962 48.154 105.072 48.3719 105.072 48.5725C105.072 48.9893 104.744 49.3167 104.346 49.3167C104.146 49.3167 103.983 49.2431 103.854 49.1347C103.347 48.6631 102.784 48.4626 102.093 48.4626C100.368 48.4626 99.2605 49.7881 99.2605 51.604C99.2605 53.4198 100.37 54.7064 102.093 54.7641C103.257 54.805 104.43 53.9578 105.372 52.4709C105.488 52.2861 105.66 51.9429 105.801 51.7641C106.068 51.4268 106.259 51.5883 106.416 51.7518C106.704 52.0532 106.701 52.7687 106.514 53.1206C105.985 54.1086 105.539 54.5687 105.033 55.0634C104.327 55.7471 103.274 56.2158 102.021 56.2158C99.3701 56.2158 97.5543 54.237 97.5543 51.6033C97.5543 48.9711 99.3701 47.0095 102.021 47.0095V47.0104ZM75.5693 54.6544C75.5693 54.9631 74.6852 55.6539 74.0491 55.9626C73.6871 56.1384 73.3222 56.2165 72.7958 56.2165C71.4155 56.2165 70.7073 55.4362 70.7073 54.0559V48.6631H69.8722C69.4914 48.6631 69.1453 48.3356 69.1453 47.9361C69.1453 47.5555 69.4914 47.228 69.8722 47.228H70.7073V45.5578C70.7068 45.4503 70.7277 45.3437 70.7686 45.2443C70.8096 45.1449 70.8698 45.0546 70.9458 44.9785C71.0218 44.9025 71.1122 44.8423 71.2116 44.8013C71.311 44.7604 71.4175 44.7396 71.5251 44.74C71.9606 44.74 72.3414 45.1035 72.3414 45.5578V47.228H73.4866C73.8847 47.228 74.2121 47.5555 74.2121 47.9361C74.2121 48.3356 73.8847 48.6631 73.4866 48.6631H72.3414V53.6925C72.3414 54.3098 72.6327 54.7641 73.1953 54.7641C74.1948 54.7641 74.9809 53.2121 75.4236 53.2121C75.8404 53.2121 75.5693 54.2549 75.5693 54.6545" fill="#EE2841"/>
</svg>
