<svg width="150" height="100" viewBox="0 0 150 100" fill="none" xmlns="http://www.w3.org/2000/svg">
<path d="M76.7444 51.7734L72.3668 40.7666L68.0145 51.7003C70.9242 51.6051 73.8367 51.6295 76.7444 51.7734ZM113.076 62.933C103.694 58.8535 93.144 55.8323 80.7471 54.8125L84.5219 63.9801H81.6001L77.874 54.6156C74.2167 54.408 70.5516 54.3789 66.8915 54.5284L63.1298 63.9801H60.206L64.0334 54.6793C50.8837 55.5417 39.6847 58.6576 29.8478 62.9302V62.3528C36.4132 58.6886 42.9056 55.9532 49.9145 54.1666V48.5394L42.0216 36.4218H44.9538L51.2174 46.4903L57.4839 36.4228H60.4132L52.5213 48.5394L52.5195 53.5498C56.5315 52.679 60.7235 52.1034 65.207 51.8306L71.7125 36.0206H73.0164L79.5734 51.9562C83.9745 52.3078 88.0999 52.9555 92.0548 53.9032V38.53H85.6055V36.4218H101.172V38.5309H94.7254V54.5959C101.085 56.3723 107.052 58.9557 113.076 62.3584V62.933ZM123.505 36.4218H107.941V38.5309H114.39V57.5318H117.058V38.5309H123.505V36.4218ZM34.1541 57.5318L31.4854 57.5337V47.1174H19.9761V57.5318H17.3074V36.4218H19.9761V45.0111H31.4854V36.4218H34.1541V57.5318ZM130.546 38.066C130.418 37.991 130.212 37.9535 129.929 37.9535H129.494V39.0109H129.954C130.173 39.0109 130.332 38.9875 130.442 38.9453C130.534 38.9119 130.613 38.8497 130.668 38.7678C130.722 38.6859 130.748 38.5887 130.743 38.4907C130.743 38.2797 130.675 38.1391 130.546 38.066ZM129.997 37.6095C130.354 37.6095 130.618 37.6442 130.788 37.7117C131.088 37.8373 131.236 38.0847 131.236 38.4484C131.236 38.7062 131.142 38.8984 130.955 39.0221C130.825 39.0961 130.682 39.143 130.534 39.1599C130.765 39.1956 130.928 39.2902 131.035 39.4439C131.13 39.5761 131.184 39.7332 131.19 39.8958V40.1067C131.19 40.1751 131.193 40.2473 131.197 40.3214C131.197 40.3737 131.206 40.4256 131.223 40.4751L131.241 40.5107H130.765L130.757 40.4826C130.754 40.4723 130.754 40.4591 130.751 40.4479L130.739 40.3542V40.1236C130.739 39.7899 130.645 39.5686 130.464 39.4608C130.354 39.3999 130.168 39.3671 129.895 39.3671H129.494V40.5107H128.98V37.6095H129.997ZM128.442 37.4595C128.228 37.6688 128.059 37.9197 127.945 38.1968C127.831 38.4739 127.775 38.7713 127.78 39.0709C127.78 39.7036 127.998 40.2426 128.439 40.6897C128.646 40.9063 128.896 41.0776 129.172 41.1928C129.449 41.308 129.747 41.3646 130.046 41.3591C130.676 41.3591 131.212 41.1378 131.657 40.6897C132.097 40.2435 132.318 39.7036 132.318 39.0709C132.322 38.7714 132.266 38.4741 132.153 38.1969C132.039 37.9198 131.87 37.6686 131.657 37.4586C131.448 37.2441 131.197 37.0744 130.92 36.96C130.643 36.8456 130.346 36.7888 130.046 36.793C129.748 36.7887 129.452 36.8455 129.176 36.96C128.9 37.0744 128.651 37.2441 128.443 37.4586L128.442 37.4595ZM131.915 40.9409C131.674 41.1925 131.384 41.3914 131.062 41.5253C130.74 41.6592 130.395 41.7252 130.046 41.719C129.315 41.719 128.692 41.4612 128.176 40.9409C127.929 40.6967 127.733 40.4048 127.602 40.0829C127.47 39.761 127.405 39.4157 127.411 39.0681C127.411 38.3416 127.669 37.7182 128.186 37.2027C128.699 36.689 129.32 36.4312 130.046 36.4312C130.779 36.4312 131.402 36.6889 131.915 37.2036C132.166 37.4441 132.365 37.7339 132.498 38.0547C132.632 38.3756 132.698 38.7206 132.692 39.0681C132.692 39.7973 132.434 40.4216 131.915 40.9409Z" fill="#4B77A9"/>
</svg>
